<mxfile host="app.diagrams.net" modified="2023-10-12T21:46:40.267Z" agent="Mozilla/5.0 (Windows NT 10.0; Win64; x64) AppleWebKit/537.36 (KHTML, like Gecko) Chrome/117.0.0.0 Safari/537.36" etag="73zh0gzG5iEIkB9GJv77" version="22.0.4" type="github">
  <diagram id="C5RBs43oDa-KdzZeNtuy" name="Page-1">
    <mxGraphModel dx="684" dy="788" grid="1" gridSize="10" guides="1" tooltips="1" connect="1" arrows="1" fold="1" page="1" pageScale="1" pageWidth="827" pageHeight="1169" math="0" shadow="0">
      <root>
        <mxCell id="WIyWlLk6GJQsqaUBKTNV-0" />
        <mxCell id="WIyWlLk6GJQsqaUBKTNV-1" parent="WIyWlLk6GJQsqaUBKTNV-0" />
        <mxCell id="WIyWlLk6GJQsqaUBKTNV-3" value="Faculty Login" style="rounded=1;whiteSpace=wrap;html=1;fontSize=12;glass=0;strokeWidth=1;shadow=0;perimeter=rectanglePerimeter;" parent="WIyWlLk6GJQsqaUBKTNV-1" vertex="1">
          <mxGeometry x="370" y="140" width="120" height="40" as="geometry" />
        </mxCell>
        <mxCell id="ON5ejcG5JM7E12T6UPmP-1" style="edgeStyle=orthogonalEdgeStyle;rounded=0;orthogonalLoop=1;jettySize=auto;html=1;exitX=0.5;exitY=1;exitDx=0;exitDy=0;entryX=0.5;entryY=0;entryDx=0;entryDy=0;" edge="1" parent="WIyWlLk6GJQsqaUBKTNV-1" source="ON5ejcG5JM7E12T6UPmP-0" target="WIyWlLk6GJQsqaUBKTNV-3">
          <mxGeometry relative="1" as="geometry" />
        </mxCell>
        <mxCell id="ON5ejcG5JM7E12T6UPmP-0" value="" style="ellipse;whiteSpace=wrap;html=1;aspect=fixed;" vertex="1" parent="WIyWlLk6GJQsqaUBKTNV-1">
          <mxGeometry x="415" y="80" width="30" height="30" as="geometry" />
        </mxCell>
        <mxCell id="ON5ejcG5JM7E12T6UPmP-2" value="" style="strokeWidth=2;html=1;shape=mxgraph.flowchart.decision;whiteSpace=wrap;" vertex="1" parent="WIyWlLk6GJQsqaUBKTNV-1">
          <mxGeometry x="400" y="210" width="60" height="50" as="geometry" />
        </mxCell>
        <mxCell id="ON5ejcG5JM7E12T6UPmP-4" style="edgeStyle=orthogonalEdgeStyle;rounded=0;orthogonalLoop=1;jettySize=auto;html=1;exitX=0.5;exitY=1;exitDx=0;exitDy=0;entryX=0.5;entryY=0;entryDx=0;entryDy=0;entryPerimeter=0;" edge="1" parent="WIyWlLk6GJQsqaUBKTNV-1" source="WIyWlLk6GJQsqaUBKTNV-3" target="ON5ejcG5JM7E12T6UPmP-2">
          <mxGeometry relative="1" as="geometry" />
        </mxCell>
        <mxCell id="ON5ejcG5JM7E12T6UPmP-12" style="edgeStyle=orthogonalEdgeStyle;rounded=0;orthogonalLoop=1;jettySize=auto;html=1;exitX=0.5;exitY=1;exitDx=0;exitDy=0;entryX=0.5;entryY=0;entryDx=0;entryDy=0;" edge="1" parent="WIyWlLk6GJQsqaUBKTNV-1" source="ON5ejcG5JM7E12T6UPmP-5" target="ON5ejcG5JM7E12T6UPmP-11">
          <mxGeometry relative="1" as="geometry" />
        </mxCell>
        <mxCell id="ON5ejcG5JM7E12T6UPmP-5" value="Select Consultations" style="rounded=1;whiteSpace=wrap;html=1;glass=0;strokeWidth=1;shadow=0;" vertex="1" parent="WIyWlLk6GJQsqaUBKTNV-1">
          <mxGeometry x="310" y="290" width="120" height="40" as="geometry" />
        </mxCell>
        <mxCell id="ON5ejcG5JM7E12T6UPmP-13" style="edgeStyle=orthogonalEdgeStyle;rounded=0;orthogonalLoop=1;jettySize=auto;html=1;exitX=1;exitY=0.5;exitDx=0;exitDy=0;entryX=1;entryY=0.25;entryDx=0;entryDy=0;" edge="1" parent="WIyWlLk6GJQsqaUBKTNV-1" source="ON5ejcG5JM7E12T6UPmP-6" target="WIyWlLk6GJQsqaUBKTNV-3">
          <mxGeometry relative="1" as="geometry" />
        </mxCell>
        <mxCell id="ON5ejcG5JM7E12T6UPmP-6" value="Error/Retry/Account Recovery" style="rounded=1;whiteSpace=wrap;html=1;glass=0;strokeWidth=1;shadow=0;" vertex="1" parent="WIyWlLk6GJQsqaUBKTNV-1">
          <mxGeometry x="460" y="290" width="120" height="40" as="geometry" />
        </mxCell>
        <mxCell id="ON5ejcG5JM7E12T6UPmP-7" style="edgeStyle=orthogonalEdgeStyle;rounded=0;orthogonalLoop=1;jettySize=auto;html=1;exitX=0;exitY=0.5;exitDx=0;exitDy=0;exitPerimeter=0;entryX=0.167;entryY=0;entryDx=0;entryDy=0;entryPerimeter=0;" edge="1" parent="WIyWlLk6GJQsqaUBKTNV-1" source="ON5ejcG5JM7E12T6UPmP-2" target="ON5ejcG5JM7E12T6UPmP-5">
          <mxGeometry relative="1" as="geometry" />
        </mxCell>
        <mxCell id="ON5ejcG5JM7E12T6UPmP-9" value="Successful" style="edgeLabel;html=1;align=center;verticalAlign=middle;resizable=0;points=[];" vertex="1" connectable="0" parent="ON5ejcG5JM7E12T6UPmP-7">
          <mxGeometry x="-0.504" y="3" relative="1" as="geometry">
            <mxPoint as="offset" />
          </mxGeometry>
        </mxCell>
        <mxCell id="ON5ejcG5JM7E12T6UPmP-8" style="edgeStyle=orthogonalEdgeStyle;rounded=0;orthogonalLoop=1;jettySize=auto;html=1;exitX=1;exitY=0.5;exitDx=0;exitDy=0;exitPerimeter=0;entryX=0.65;entryY=-0.1;entryDx=0;entryDy=0;entryPerimeter=0;" edge="1" parent="WIyWlLk6GJQsqaUBKTNV-1" source="ON5ejcG5JM7E12T6UPmP-2" target="ON5ejcG5JM7E12T6UPmP-6">
          <mxGeometry relative="1" as="geometry" />
        </mxCell>
        <mxCell id="ON5ejcG5JM7E12T6UPmP-10" value="Unsuccessful" style="edgeLabel;html=1;align=center;verticalAlign=middle;resizable=0;points=[];" vertex="1" connectable="0" parent="ON5ejcG5JM7E12T6UPmP-8">
          <mxGeometry x="-0.4419" relative="1" as="geometry">
            <mxPoint as="offset" />
          </mxGeometry>
        </mxCell>
        <mxCell id="ON5ejcG5JM7E12T6UPmP-11" value="Enter Consultation information" style="rounded=1;whiteSpace=wrap;html=1;glass=0;strokeWidth=1;shadow=0;" vertex="1" parent="WIyWlLk6GJQsqaUBKTNV-1">
          <mxGeometry x="310" y="380" width="120" height="40" as="geometry" />
        </mxCell>
        <mxCell id="ON5ejcG5JM7E12T6UPmP-18" style="edgeStyle=orthogonalEdgeStyle;rounded=0;orthogonalLoop=1;jettySize=auto;html=1;exitX=0;exitY=0.5;exitDx=0;exitDy=0;exitPerimeter=0;entryX=0.25;entryY=0;entryDx=0;entryDy=0;" edge="1" parent="WIyWlLk6GJQsqaUBKTNV-1" source="ON5ejcG5JM7E12T6UPmP-14" target="ON5ejcG5JM7E12T6UPmP-16">
          <mxGeometry relative="1" as="geometry" />
        </mxCell>
        <mxCell id="ON5ejcG5JM7E12T6UPmP-20" value="Data is Valid" style="edgeLabel;html=1;align=center;verticalAlign=middle;resizable=0;points=[];" vertex="1" connectable="0" parent="ON5ejcG5JM7E12T6UPmP-18">
          <mxGeometry x="-0.3778" y="1" relative="1" as="geometry">
            <mxPoint as="offset" />
          </mxGeometry>
        </mxCell>
        <mxCell id="ON5ejcG5JM7E12T6UPmP-19" style="edgeStyle=orthogonalEdgeStyle;rounded=0;orthogonalLoop=1;jettySize=auto;html=1;exitX=1;exitY=0.5;exitDx=0;exitDy=0;exitPerimeter=0;entryX=0.5;entryY=0;entryDx=0;entryDy=0;" edge="1" parent="WIyWlLk6GJQsqaUBKTNV-1" source="ON5ejcG5JM7E12T6UPmP-14" target="ON5ejcG5JM7E12T6UPmP-17">
          <mxGeometry relative="1" as="geometry" />
        </mxCell>
        <mxCell id="ON5ejcG5JM7E12T6UPmP-22" value="Data is not Valid" style="edgeLabel;html=1;align=center;verticalAlign=middle;resizable=0;points=[];" vertex="1" connectable="0" parent="ON5ejcG5JM7E12T6UPmP-19">
          <mxGeometry x="-0.4074" y="-2" relative="1" as="geometry">
            <mxPoint as="offset" />
          </mxGeometry>
        </mxCell>
        <mxCell id="ON5ejcG5JM7E12T6UPmP-14" value="" style="strokeWidth=2;html=1;shape=mxgraph.flowchart.decision;whiteSpace=wrap;" vertex="1" parent="WIyWlLk6GJQsqaUBKTNV-1">
          <mxGeometry x="340" y="460" width="60" height="50" as="geometry" />
        </mxCell>
        <mxCell id="ON5ejcG5JM7E12T6UPmP-15" style="edgeStyle=orthogonalEdgeStyle;rounded=0;orthogonalLoop=1;jettySize=auto;html=1;exitX=0.5;exitY=1;exitDx=0;exitDy=0;entryX=0.5;entryY=0;entryDx=0;entryDy=0;entryPerimeter=0;" edge="1" parent="WIyWlLk6GJQsqaUBKTNV-1" source="ON5ejcG5JM7E12T6UPmP-11" target="ON5ejcG5JM7E12T6UPmP-14">
          <mxGeometry relative="1" as="geometry" />
        </mxCell>
        <mxCell id="ON5ejcG5JM7E12T6UPmP-25" style="edgeStyle=orthogonalEdgeStyle;rounded=0;orthogonalLoop=1;jettySize=auto;html=1;exitX=0.5;exitY=1;exitDx=0;exitDy=0;entryX=0.5;entryY=0;entryDx=0;entryDy=0;" edge="1" parent="WIyWlLk6GJQsqaUBKTNV-1" source="ON5ejcG5JM7E12T6UPmP-16" target="ON5ejcG5JM7E12T6UPmP-24">
          <mxGeometry relative="1" as="geometry" />
        </mxCell>
        <mxCell id="ON5ejcG5JM7E12T6UPmP-16" value="Submit Consultation Request/notice sent CTL staff" style="rounded=1;whiteSpace=wrap;html=1;glass=0;strokeWidth=1;shadow=0;" vertex="1" parent="WIyWlLk6GJQsqaUBKTNV-1">
          <mxGeometry x="220" y="550" width="120" height="40" as="geometry" />
        </mxCell>
        <mxCell id="ON5ejcG5JM7E12T6UPmP-23" style="edgeStyle=orthogonalEdgeStyle;rounded=0;orthogonalLoop=1;jettySize=auto;html=1;exitX=1;exitY=0.5;exitDx=0;exitDy=0;entryX=1;entryY=0.25;entryDx=0;entryDy=0;" edge="1" parent="WIyWlLk6GJQsqaUBKTNV-1" source="ON5ejcG5JM7E12T6UPmP-17" target="ON5ejcG5JM7E12T6UPmP-11">
          <mxGeometry relative="1" as="geometry" />
        </mxCell>
        <mxCell id="ON5ejcG5JM7E12T6UPmP-17" value="Specified Data Validation Error(s) / User Corrects and Retries" style="rounded=1;whiteSpace=wrap;html=1;glass=0;strokeWidth=1;shadow=0;" vertex="1" parent="WIyWlLk6GJQsqaUBKTNV-1">
          <mxGeometry x="440" y="540" width="120" height="60" as="geometry" />
        </mxCell>
        <mxCell id="ON5ejcG5JM7E12T6UPmP-24" value="Consultation Reviewed" style="rounded=1;whiteSpace=wrap;html=1;glass=0;strokeWidth=1;shadow=0;" vertex="1" parent="WIyWlLk6GJQsqaUBKTNV-1">
          <mxGeometry x="220" y="645" width="120" height="40" as="geometry" />
        </mxCell>
        <mxCell id="ON5ejcG5JM7E12T6UPmP-31" style="edgeStyle=orthogonalEdgeStyle;rounded=0;orthogonalLoop=1;jettySize=auto;html=1;exitX=1;exitY=0.5;exitDx=0;exitDy=0;exitPerimeter=0;entryX=0.5;entryY=0;entryDx=0;entryDy=0;entryPerimeter=0;" edge="1" parent="WIyWlLk6GJQsqaUBKTNV-1" source="ON5ejcG5JM7E12T6UPmP-26" target="ON5ejcG5JM7E12T6UPmP-65">
          <mxGeometry relative="1" as="geometry">
            <mxPoint x="370" y="800" as="targetPoint" />
          </mxGeometry>
        </mxCell>
        <mxCell id="ON5ejcG5JM7E12T6UPmP-33" value="Denied" style="edgeLabel;html=1;align=center;verticalAlign=middle;resizable=0;points=[];" vertex="1" connectable="0" parent="ON5ejcG5JM7E12T6UPmP-31">
          <mxGeometry x="-0.5652" y="-1" relative="1" as="geometry">
            <mxPoint as="offset" />
          </mxGeometry>
        </mxCell>
        <mxCell id="ON5ejcG5JM7E12T6UPmP-26" value="" style="strokeWidth=2;html=1;shape=mxgraph.flowchart.decision;whiteSpace=wrap;" vertex="1" parent="WIyWlLk6GJQsqaUBKTNV-1">
          <mxGeometry x="250" y="720" width="60" height="50" as="geometry" />
        </mxCell>
        <mxCell id="ON5ejcG5JM7E12T6UPmP-27" style="edgeStyle=orthogonalEdgeStyle;rounded=0;orthogonalLoop=1;jettySize=auto;html=1;exitX=0.5;exitY=1;exitDx=0;exitDy=0;entryX=0.5;entryY=0;entryDx=0;entryDy=0;entryPerimeter=0;" edge="1" parent="WIyWlLk6GJQsqaUBKTNV-1" source="ON5ejcG5JM7E12T6UPmP-24" target="ON5ejcG5JM7E12T6UPmP-26">
          <mxGeometry relative="1" as="geometry" />
        </mxCell>
        <mxCell id="ON5ejcG5JM7E12T6UPmP-57" style="edgeStyle=orthogonalEdgeStyle;rounded=0;orthogonalLoop=1;jettySize=auto;html=1;exitX=0.5;exitY=1;exitDx=0;exitDy=0;entryX=0;entryY=0.5;entryDx=0;entryDy=0;" edge="1" parent="WIyWlLk6GJQsqaUBKTNV-1" source="ON5ejcG5JM7E12T6UPmP-29" target="ON5ejcG5JM7E12T6UPmP-56">
          <mxGeometry relative="1" as="geometry" />
        </mxCell>
        <mxCell id="ON5ejcG5JM7E12T6UPmP-29" value="Consultation Scheduled" style="rounded=1;whiteSpace=wrap;html=1;glass=0;strokeWidth=1;shadow=0;" vertex="1" parent="WIyWlLk6GJQsqaUBKTNV-1">
          <mxGeometry x="110" y="800" width="120" height="40" as="geometry" />
        </mxCell>
        <mxCell id="ON5ejcG5JM7E12T6UPmP-30" style="edgeStyle=orthogonalEdgeStyle;rounded=0;orthogonalLoop=1;jettySize=auto;html=1;exitX=0;exitY=0.5;exitDx=0;exitDy=0;exitPerimeter=0;entryX=0.475;entryY=-0.15;entryDx=0;entryDy=0;entryPerimeter=0;" edge="1" parent="WIyWlLk6GJQsqaUBKTNV-1" source="ON5ejcG5JM7E12T6UPmP-26" target="ON5ejcG5JM7E12T6UPmP-29">
          <mxGeometry relative="1" as="geometry" />
        </mxCell>
        <mxCell id="ON5ejcG5JM7E12T6UPmP-32" value="Approved" style="edgeLabel;html=1;align=center;verticalAlign=middle;resizable=0;points=[];" vertex="1" connectable="0" parent="ON5ejcG5JM7E12T6UPmP-30">
          <mxGeometry x="-0.1803" y="2" relative="1" as="geometry">
            <mxPoint as="offset" />
          </mxGeometry>
        </mxCell>
        <mxCell id="ON5ejcG5JM7E12T6UPmP-42" style="edgeStyle=orthogonalEdgeStyle;rounded=0;orthogonalLoop=1;jettySize=auto;html=1;exitX=0.5;exitY=0;exitDx=0;exitDy=0;entryX=0.75;entryY=1;entryDx=0;entryDy=0;" edge="1" parent="WIyWlLk6GJQsqaUBKTNV-1" source="ON5ejcG5JM7E12T6UPmP-37" target="ON5ejcG5JM7E12T6UPmP-16">
          <mxGeometry relative="1" as="geometry" />
        </mxCell>
        <mxCell id="ON5ejcG5JM7E12T6UPmP-37" value="Update Consultation Information" style="rounded=1;whiteSpace=wrap;html=1;glass=0;strokeWidth=1;shadow=0;" vertex="1" parent="WIyWlLk6GJQsqaUBKTNV-1">
          <mxGeometry x="390" y="670" width="120" height="40" as="geometry" />
        </mxCell>
        <mxCell id="ON5ejcG5JM7E12T6UPmP-73" style="edgeStyle=orthogonalEdgeStyle;rounded=0;orthogonalLoop=1;jettySize=auto;html=1;exitX=0.5;exitY=1;exitDx=0;exitDy=0;" edge="1" parent="WIyWlLk6GJQsqaUBKTNV-1" source="ON5ejcG5JM7E12T6UPmP-56" target="ON5ejcG5JM7E12T6UPmP-72">
          <mxGeometry relative="1" as="geometry" />
        </mxCell>
        <mxCell id="ON5ejcG5JM7E12T6UPmP-74" value="Exit Function" style="edgeLabel;html=1;align=center;verticalAlign=middle;resizable=0;points=[];" vertex="1" connectable="0" parent="ON5ejcG5JM7E12T6UPmP-73">
          <mxGeometry x="-0.06" y="4" relative="1" as="geometry">
            <mxPoint as="offset" />
          </mxGeometry>
        </mxCell>
        <mxCell id="ON5ejcG5JM7E12T6UPmP-56" value="Notify User" style="rounded=1;whiteSpace=wrap;html=1;glass=0;strokeWidth=1;shadow=0;" vertex="1" parent="WIyWlLk6GJQsqaUBKTNV-1">
          <mxGeometry x="190" y="900" width="120" height="40" as="geometry" />
        </mxCell>
        <mxCell id="ON5ejcG5JM7E12T6UPmP-70" style="edgeStyle=orthogonalEdgeStyle;rounded=0;orthogonalLoop=1;jettySize=auto;html=1;exitX=1;exitY=0.5;exitDx=0;exitDy=0;entryX=1;entryY=0.5;entryDx=0;entryDy=0;" edge="1" parent="WIyWlLk6GJQsqaUBKTNV-1" source="ON5ejcG5JM7E12T6UPmP-64" target="ON5ejcG5JM7E12T6UPmP-37">
          <mxGeometry relative="1" as="geometry" />
        </mxCell>
        <mxCell id="ON5ejcG5JM7E12T6UPmP-64" value="Changes and resubmit requested" style="rounded=1;whiteSpace=wrap;html=1;glass=0;strokeWidth=1;shadow=0;" vertex="1" parent="WIyWlLk6GJQsqaUBKTNV-1">
          <mxGeometry x="445" y="890" width="120" height="40" as="geometry" />
        </mxCell>
        <mxCell id="ON5ejcG5JM7E12T6UPmP-65" value="" style="strokeWidth=2;html=1;shape=mxgraph.flowchart.decision;whiteSpace=wrap;" vertex="1" parent="WIyWlLk6GJQsqaUBKTNV-1">
          <mxGeometry x="370" y="795" width="60" height="50" as="geometry" />
        </mxCell>
        <mxCell id="ON5ejcG5JM7E12T6UPmP-66" style="edgeStyle=orthogonalEdgeStyle;rounded=0;orthogonalLoop=1;jettySize=auto;html=1;exitX=0;exitY=0.5;exitDx=0;exitDy=0;exitPerimeter=0;entryX=0.5;entryY=0;entryDx=0;entryDy=0;" edge="1" parent="WIyWlLk6GJQsqaUBKTNV-1" source="ON5ejcG5JM7E12T6UPmP-65" target="ON5ejcG5JM7E12T6UPmP-56">
          <mxGeometry relative="1" as="geometry">
            <mxPoint x="257" y="876" as="targetPoint" />
          </mxGeometry>
        </mxCell>
        <mxCell id="ON5ejcG5JM7E12T6UPmP-68" value="Resubmit Ineligible" style="edgeLabel;html=1;align=center;verticalAlign=middle;resizable=0;points=[];" vertex="1" connectable="0" parent="ON5ejcG5JM7E12T6UPmP-66">
          <mxGeometry x="-0.3485" y="-1" relative="1" as="geometry">
            <mxPoint as="offset" />
          </mxGeometry>
        </mxCell>
        <mxCell id="ON5ejcG5JM7E12T6UPmP-67" style="edgeStyle=orthogonalEdgeStyle;rounded=0;orthogonalLoop=1;jettySize=auto;html=1;exitX=1;exitY=0.5;exitDx=0;exitDy=0;exitPerimeter=0;entryX=0.558;entryY=-0.025;entryDx=0;entryDy=0;entryPerimeter=0;" edge="1" parent="WIyWlLk6GJQsqaUBKTNV-1" source="ON5ejcG5JM7E12T6UPmP-65" target="ON5ejcG5JM7E12T6UPmP-64">
          <mxGeometry relative="1" as="geometry" />
        </mxCell>
        <mxCell id="ON5ejcG5JM7E12T6UPmP-69" value="Resubmit Eligible" style="edgeLabel;html=1;align=center;verticalAlign=middle;resizable=0;points=[];" vertex="1" connectable="0" parent="ON5ejcG5JM7E12T6UPmP-67">
          <mxGeometry x="-0.5909" y="-3" relative="1" as="geometry">
            <mxPoint x="18" y="-3" as="offset" />
          </mxGeometry>
        </mxCell>
        <mxCell id="ON5ejcG5JM7E12T6UPmP-72" value="" style="ellipse;shape=doubleEllipse;whiteSpace=wrap;html=1;aspect=fixed;" vertex="1" parent="WIyWlLk6GJQsqaUBKTNV-1">
          <mxGeometry x="230" y="1000" width="30" height="30" as="geometry" />
        </mxCell>
      </root>
    </mxGraphModel>
  </diagram>
</mxfile>
